# xmcd
#
# Track frame offsets:
#	150
#	14619
#	30718
#	43870
#	59462
#	76331
#	92193
#	109103
#	125940
#	139951
#	153069
#	166849
#	181543
#	198624
#	199222
#	199813
#	200414
#	201321
#	201994
#	202590
#	203198
#	203828
#	204462
#	205048
#	205856
#	206825
#	207556
#	208216
#	208843
#
# Disc length: 2791 seconds
#
# Revision: 1
# Processed by: cddbd v1.5.2PL0 Copyright (c) Steve Scherf et al.
# Submitted via: audiograbber 1.83.01
#
DISCID=d00ae51d
DTITLE=Various Artist - CDX Volume 603 (September 1, 2014)
DYEAR=2014
DGENRE=Country
TTITLE0=Easton Corbin - Baby Be My Love Song [Radio Edit] 
TTITLE1=Lee Brice - Drinking Class 
TTITLE2=Josh Abbott Band - Hangin' Around
TTITLE3=Darius Rucker - Homegrown Honey [Radio Edit]
TTITLE4=Lee Brice - I Don't Dance (Acoustic Version)
TTITLE5=Chris Young - Lonely Eyes [Radio Edit]
TTITLE6=Blake Shelton - Neon Light 
TTITLE7=Kenny Davin Fine - Friendship
TTITLE8=Rick Patterson - Good For Me Deer
TTITLE9=Billy Ray Cyrus - Like A Country Song
TTITLE10=Two Way Crossing - Deep End 
TTITLE11=Scott Collier - Honky Tonk City
TTITLE12=Kacey Jones - You've Tried The Patience Out Of Me
TTITLE13=Danika Portz - Liner - Home Town Country
TTITLE14=Danika Portz - Liner - Kickin' Country
TTITLE15=Danika Portz - Liner - More of the Country You Love
TTITLE16=Danika Portz - Liner - My New Single
TTITLE17=Danika Portz - Liner - Super Country Greatest Hits
TTITLE18=Danika Portz - Liner - The Best in Country Music
TTITLE19=Danika Portz - Liner - Today's Best Country
TTITLE20=Danika Portz - Liner - Today's Hot Country Music
TTITLE21=Brushville - Liner - Home Town Country
TTITLE22=Brushville - Liner - Kickin' Country
TTITLE23=Brushville - Liner - More Of The Country You Love
TTITLE24=Brushville - Liner - Our New Single
TTITLE25=Brushville - Liner - Super Country
TTITLE26=Brushville - Liner - The Best In Country Music
TTITLE27=Brushville - Liner - Today's Best Country
TTITLE28=Brushville - Liner - Today's Hot Country Music
EXTD=
EXTT0=
EXTT1=
EXTT2=
EXTT3=
EXTT4=
EXTT5=
EXTT6=
EXTT7=
EXTT8=
EXTT9=
EXTT10=
EXTT11=
EXTT12=
EXTT13=
EXTT14=
EXTT15=
EXTT16=
EXTT17=
EXTT18=
EXTT19=
EXTT20=
EXTT21=
EXTT22=
EXTT23=
EXTT24=
EXTT25=
EXTT26=
EXTT27=
EXTT28=
PLAYORDER=
